<svg width="80" height="87" viewBox="0 0 80 87" fill="none" xmlns="http://www.w3.org/2000/svg">
<path d="M0 20.4237C0 14.3021 4.60167 9.16639 10.6995 8.62708C19.1631 7.87853 31.0111 7 40 7C48.9889 7 60.8369 7.87853 69.3005 8.62708C75.3983 9.16639 80 14.3021 80 20.4237V73.5763C80 79.6979 75.3983 84.8336 69.3005 85.3729C60.837 86.1215 48.989 87 40 87C31.011 87 19.163 86.1215 10.6995 85.3729C4.60166 84.8336 0 79.6979 0 73.5763V20.4237Z" fill="#0B4C61" fill-opacity="0.3"/>
<path d="M0 13.4237C0 7.30211 4.60167 2.16639 10.6995 1.62708C19.1631 0.878529 31.0111 0 40 0C48.9889 0 60.8369 0.878529 69.3005 1.62708C75.3983 2.16639 80 7.30212 80 13.4237V66.5763C80 72.6979 75.3983 77.8336 69.3005 78.3729C60.837 79.1215 48.989 80 40 80C31.011 80 19.163 79.1215 10.6995 78.3729C4.60166 77.8336 0 72.6979 0 66.5763V13.4237Z" fill="#0B4C61"/>
<path d="M48 29.5099V46.4483H45.8611V29.5099C45.8611 27.3353 44.1521 24.9932 40.3984 24.9932C36.2468 24.9932 35.1389 27.8316 35.1389 29.5099V45.6968H35.1539V48.601C35.1539 49.8368 36.6361 51.0048 38.2039 51.0048C40.0091 51.0048 41.5555 49.6434 41.5555 48.5312V47.993H41.5491L41.5662 32.8106C41.5662 31.0686 41.0379 31.0686 40.5695 31.0686C39.7803 31.0686 39.3995 31.1383 39.3995 32.709V42.9661H37.2607V32.709C37.2607 31.81 37.2607 29.0753 40.5695 29.0753C42.0004 29.0753 43.7051 29.7231 43.7051 32.8126L43.6901 45.6291H43.6944V48.5332C43.6944 50.8712 41.0764 53 38.2039 53C35.4405 53 33.015 50.945 33.015 48.603V48.4555H33V29.5099C33 26.3745 35.3143 23 40.3984 23C45.3884 23.002 48 26.2749 48 29.5099Z" fill="white"/>
</svg>
