<svg width="80" height="87" viewBox="0 0 80 87" fill="none" xmlns="http://www.w3.org/2000/svg">
<path d="M0 20.4237C0 14.3021 4.60167 9.16639 10.6995 8.62708C19.1631 7.87853 31.0111 7 40 7C48.9889 7 60.8369 7.87853 69.3005 8.62708C75.3983 9.16639 80 14.3021 80 20.4237V73.5763C80 79.6979 75.3983 84.8336 69.3005 85.3729C60.837 86.1215 48.989 87 40 87C31.011 87 19.163 86.1215 10.6995 85.3729C4.60166 84.8336 0 79.6979 0 73.5763V20.4237Z" fill="#0B4C61" fill-opacity="0.3"/>
<path d="M0 13.4237C0 7.30211 4.60167 2.16639 10.6995 1.62708C19.1631 0.878529 31.0111 0 40 0C48.9889 0 60.8369 0.878529 69.3005 1.62708C75.3983 2.16639 80 7.30212 80 13.4237V66.5763C80 72.6979 75.3983 77.8336 69.3005 78.3729C60.837 79.1215 48.989 80 40 80C31.011 80 19.163 79.1215 10.6995 78.3729C4.60166 77.8336 0 72.6979 0 66.5763V13.4237Z" fill="#0B4C61"/>
<path d="M54.158 48.0968C54.1288 48.0699 51.4241 45.4253 51.4241 41.4697V34.6733C51.4241 28.2712 46.2814 23.0645 39.9635 23.0645C33.6456 23.0645 28.503 28.2712 28.503 34.6733V41.4697C28.503 45.3117 25.7816 48.0823 25.7566 48.1092L24 49.8702H56L54.158 48.0968ZM28.6113 47.8057C29.5365 46.377 30.5867 44.1639 30.5867 41.4697V34.6733C30.5867 29.4108 34.7938 25.129 39.9635 25.129C45.1333 25.129 49.3404 29.4108 49.3404 34.6733V41.4697C49.3404 44.1948 50.3718 46.3894 51.2949 47.8057H28.6113ZM41.0054 23.0645H38.9217V21H41.0054V23.0645ZM41.0054 49.9032H43.0891C43.0891 51.6106 41.6868 53 39.9635 53C38.2403 53 36.8379 51.6106 36.8379 49.9032H38.9217C38.9217 50.473 39.3905 50.9355 39.9635 50.9355C40.5366 50.9355 41.0054 50.473 41.0054 49.9032Z" fill="white"/>
</svg>
